<svg width="48" height="48" viewBox="0 0 48 48" fill="none" xmlns="http://www.w3.org/2000/svg">
<rect x="3" y="3" width="42" height="42" rx="6" fill="white"/>
<path d="M42.69 3H5.31C4.69735 3 4.10979 3.24337 3.67658 3.67658C3.24337 4.10979 3 4.69735 3 5.31V42.69C3 42.9934 3.05975 43.2937 3.17584 43.574C3.29193 43.8543 3.46208 44.1089 3.67658 44.3234C3.89109 44.5379 4.14574 44.7081 4.426 44.8242C4.70626 44.9402 5.00665 45 5.31 45H25.428V28.725H19.968V22.425H25.428V17.7C25.3149 16.5907 25.4459 15.4701 25.8117 14.4167C26.1775 13.3634 26.7694 12.4028 27.5458 11.6025C28.3221 10.8021 29.2642 10.1812 30.3059 9.7835C31.3476 9.38575 32.4638 9.22073 33.576 9.3C35.2105 9.28994 36.8442 9.37408 38.469 9.552V15.222H35.13C32.484 15.222 31.98 16.482 31.98 18.309V22.362H38.28L37.461 28.662H31.98V45H42.69C42.9934 45 43.2937 44.9402 43.574 44.8242C43.8543 44.7081 44.1089 44.5379 44.3234 44.3234C44.5379 44.1089 44.7081 43.8543 44.8242 43.574C44.9402 43.2937 45 42.9934 45 42.69V5.31C45 5.00665 44.9402 4.70626 44.8242 4.426C44.7081 4.14574 44.5379 3.89109 44.3234 3.67658C44.1089 3.46208 43.8543 3.29193 43.574 3.17584C43.2937 3.05975 42.9934 3 42.69 3Z" fill="#4267B2"/>
</svg>
