<svg width="48" height="48" viewBox="0 0 48 48" fill="none" xmlns="http://www.w3.org/2000/svg">
<rect x="3" y="3" width="42" height="42" rx="6" fill="black"/>
<path d="M20.7629 19.2V24.786C20.0793 24.5799 19.358 24.5307 18.6527 24.6418C17.9474 24.753 17.2763 25.0218 16.6892 25.4282C16.1021 25.8346 15.6143 26.3682 15.2619 26.9892C14.9095 27.6101 14.7017 28.3026 14.6539 29.015C14.6539 31.26 15.8879 33.956 19.3599 33.956C19.9846 33.9653 20.6047 33.8481 21.1829 33.6115C21.7612 33.3749 22.2856 33.0239 22.7246 32.5794C23.1637 32.1349 23.5083 31.6062 23.7378 31.0251C23.9673 30.444 24.0768 29.8225 24.0599 29.198V7.08301H29.5879C30.5269 12.931 33.4509 14.289 37.3669 14.915V20.515C37.3669 20.515 32.7199 20.186 29.7439 17.94V29.012C29.7439 33.607 26.2439 39.612 19.4059 39.612C12.5679 39.612 9.06689 33.816 9.06689 28.96C9.11093 27.5213 9.45941 26.1083 10.0894 24.814C10.7193 23.5198 11.6164 22.3739 12.7216 21.4516C13.8267 20.5294 15.1148 19.8519 16.5009 19.4638C17.8869 19.0757 19.3395 18.9858 20.7629 19.2Z" fill="#6AC9D0"/>
<path d="M22.329 20.5V26.086C21.6453 25.88 20.9239 25.8307 20.2186 25.9419C19.5132 26.0532 18.842 26.3221 18.2549 26.7286C17.6679 27.1351 17.18 27.6687 16.8277 28.2899C16.4754 28.911 16.2677 29.6035 16.22 30.316C16.22 32.561 17.454 35.256 20.926 35.256C21.5507 35.2653 22.1708 35.1481 22.7491 34.9115C23.3273 34.675 23.8517 34.3239 24.2908 33.8794C24.7298 33.4349 25.0744 32.9063 25.3039 32.3252C25.5334 31.7441 25.6429 31.1226 25.626 30.498V8.38904H31.154C32.094 14.236 35.018 15.594 38.934 16.22V21.82C38.934 21.82 34.287 21.491 31.311 19.246V30.318C31.311 34.912 27.811 40.918 20.973 40.918C14.135 40.918 10.635 35.118 10.635 30.266C10.6783 28.827 11.0261 27.4135 11.6556 26.1187C12.285 24.824 13.1818 23.6773 14.2869 22.7545C15.3919 21.8317 16.68 21.1536 18.0662 20.765C19.4524 20.3764 20.9053 20.2861 22.329 20.5Z" fill="#EE1D52"/>
<path d="M37.3658 15.907C35.7917 15.5939 34.358 14.7884 33.2718 13.607C31.6968 12.667 30.5078 11.107 29.8488 8.38696H25.6248V30.5C25.6417 31.1245 25.5322 31.746 25.3027 32.3271C25.0732 32.9082 24.7286 33.4369 24.2896 33.8813C23.8505 34.3258 23.3261 34.6769 22.7479 34.9135C22.1696 35.15 21.5495 35.2672 20.9248 35.258C20.2041 35.299 19.4844 35.1603 18.8306 34.8543C18.1767 34.5483 17.6091 34.0846 17.1788 33.505C16.3741 33.0738 15.709 32.4221 15.2616 31.6263C14.8142 30.8305 14.603 29.9236 14.6528 29.012C14.7006 28.2996 14.9084 27.6071 15.2608 26.9861C15.6132 26.3651 16.1011 25.8316 16.6881 25.4252C17.2752 25.0188 17.9463 24.75 18.6516 24.6388C19.3569 24.5276 20.0782 24.5769 20.7618 24.783V20.383C18.1239 20.4033 15.5962 21.4435 13.7081 23.2858C11.82 25.128 10.718 27.6294 10.6328 30.266C10.6497 33.1343 11.7602 35.8882 13.7378 37.966C15.418 39.0724 17.3923 39.6473 19.4038 39.616C26.2438 39.616 29.7418 33.616 29.7418 29.016V17.943C32.7178 20.189 37.3648 20.518 37.3648 20.518L37.3658 15.907Z" fill="white"/>
</svg>
