<svg width="48" height="48" viewBox="0 0 48 48" fill="none" xmlns="http://www.w3.org/2000/svg">
<rect x="6.97241" y="5.71228" width="35.0122" height="36.5754" fill="#FDFEFE"/>
<path d="M21.4686 34.0675C21.4686 34.1191 21.4686 34.1836 21.4401 34.2195C21.2465 34.4693 21.0161 34.6776 20.7138 34.7882C20.4512 34.884 20.242 34.767 20.1867 34.4942C20.1646 34.3863 20.1637 34.273 20.1637 34.1624C20.1627 32.1303 20.1572 27.9637 20.1544 27.9131H18.655C18.655 27.9693 18.6532 33.7735 18.6568 34.8702C18.6578 35.1669 18.6891 35.4618 18.8126 35.7374C18.9453 36.036 19.1656 36.2249 19.4937 36.2793C19.7342 36.3208 19.9692 36.294 20.1978 36.2157C20.6659 36.0544 21.0327 35.7503 21.3562 35.3854C21.3848 35.3531 21.4152 35.3218 21.4696 35.2637V36.1742H22.9727V32.1902C22.9727 30.8096 22.9727 27.9001 22.9727 27.9001L21.4686 27.9038V34.0675Z" fill="#DC2217"/>
<path d="M28.575 28.5589C28.258 27.8834 27.5917 27.7046 27.0138 27.8493C26.6636 27.9378 26.3798 28.1396 26.1466 28.4004C26.0692 28.4879 25.9844 28.6575 25.9844 28.6575C25.9844 28.6575 25.9844 26.1628 25.9844 24.9702H24.4785V36.1722H25.9844V35.5437C25.9844 35.5437 26.0913 35.657 26.13 35.6985C26.4756 36.0736 26.8949 36.2791 27.412 36.2837C28.0479 36.2902 28.4902 35.9824 28.6911 35.3778C28.7842 35.0967 28.8146 34.8073 28.8155 34.5143C28.8174 32.9485 28.8174 31.3827 28.8146 29.8169C28.8146 29.3837 28.7621 28.9581 28.575 28.5589ZM27.2645 34.3273C27.2645 34.4111 27.2544 34.4959 27.2368 34.5779C27.1677 34.906 26.918 35.0535 26.5641 34.9807C26.3494 34.9365 26.1816 34.813 26.0379 34.6572C26.0314 34.6498 25.989 34.5927 25.989 34.5927V34.4701L25.9853 29.4963C25.9853 29.4963 26.0176 29.4041 26.0885 29.3424C26.2655 29.1857 26.4609 29.0871 26.7051 29.111C26.9134 29.1313 27.0793 29.2272 27.1567 29.4198C27.2147 29.5663 27.2608 29.7294 27.2617 29.8861C27.2691 31.3661 27.2663 32.8462 27.2645 34.3273Z" fill="#DC2217"/>
<path d="M23.1602 18.7951C23.5113 18.7951 23.7969 18.5095 23.7969 18.1584V13.6655C23.7969 13.3144 23.5112 13.0288 23.1602 13.0288C22.8091 13.0288 22.5234 13.3145 22.5234 13.6655V18.1584C22.5233 18.5095 22.809 18.7951 23.1602 18.7951Z" fill="#DC2217"/>
<path d="M18.6589 24.9713H13.4426V26.5766H15.2001V36.1733H16.8977V26.573H18.6589V24.9713Z" fill="#DC2217"/>
<path d="M32.877 33.2361V34.2987C32.877 34.6701 32.5765 34.9706 32.206 34.9706C31.8346 34.9706 31.5342 34.6701 31.5342 34.2987V32.2316H34.4179C34.4179 32.2316 34.4344 30.7893 34.4225 30.1349C34.4179 29.8557 34.3967 29.5728 34.3395 29.3C34.1902 28.5922 33.8096 28.0586 33.0972 27.8245C32.888 27.7554 32.6631 27.7194 32.4429 27.7056C31.7102 27.6586 31.0688 27.8678 30.5674 28.4291C30.1278 28.9203 29.9748 29.5119 29.9739 30.1534C29.9712 31.38 29.9656 32.6076 29.9776 33.8342C29.9813 34.1467 30.0163 34.4655 30.0873 34.7697C30.2403 35.4231 30.5969 35.9364 31.2264 36.2202C31.6862 36.4285 32.1719 36.4387 32.6622 36.3668C33.4529 36.2507 33.9921 35.8267 34.2529 35.0627C34.4492 34.4904 34.4262 33.2361 34.4262 33.2361H32.877ZM31.5342 29.7894C31.5342 29.419 31.8346 29.1176 32.206 29.1176C32.5765 29.1176 32.877 29.419 32.877 29.7894V30.9497H31.5342V29.7894Z" fill="#DC2217"/>
<path d="M9 3C5.68629 3 3 5.68629 3 9V39C3 42.3137 5.68629 45 9 45H39C42.3137 45 45 42.3137 45 39V9C45 5.68629 42.3137 3 39 3H9ZM26.6606 11.7542H28.1901V18.0968C28.1901 18.1808 28.1968 18.2658 28.2116 18.3482C28.2579 18.6095 28.4512 18.7326 28.7029 18.6453C29.0097 18.5391 29.2438 18.3267 29.4424 18.0764C29.4706 18.0406 29.4654 17.9739 29.4654 17.9215V11.7542H31.006L31.0056 20.0711H29.4646L29.4664 19.1776C29.296 19.3454 29.1506 19.5022 28.9908 19.643C28.7075 19.8926 28.3866 20.0787 28.0112 20.1521C27.4349 20.2647 26.9441 20.0826 26.7603 19.4858C26.6991 19.287 26.6622 19.0727 26.6606 18.8652V11.7542ZM23.1602 11.5461C24.3789 11.5461 25.3669 12.534 25.3669 13.7527V18.0712C25.3669 19.29 24.3789 20.2779 23.1602 20.2779C21.9415 20.2779 20.9535 19.29 20.9535 18.0712V13.7527C20.9534 12.534 21.9414 11.5461 23.1602 11.5461ZM17.2242 8.81251C17.2242 8.81251 17.9251 11.7894 18.2596 13.1995C18.5941 11.7894 19.2956 8.81251 19.2956 8.81251H21.0493C21.0493 8.81251 19.7019 13.2811 19.0994 15.2739C19.0776 15.3459 19.0678 15.4242 19.0678 15.4997L19.0685 20.0693H17.4514L17.452 15.4997C17.452 15.4242 17.4421 15.346 17.4204 15.2739C16.8179 13.2811 15.4705 8.81251 15.4705 8.81251H17.2242ZM36.5073 35.3356C36.5073 37.3797 34.8742 39.0496 32.8311 39.0929C26.9448 39.2192 21.0558 39.2192 15.1687 39.0929C13.1264 39.0496 11.4933 37.3797 11.4933 35.3356V26.1417C11.4933 24.0986 13.1264 22.4286 15.1687 22.3853C21.0558 22.2591 26.9448 22.2591 32.8311 22.3853C34.8742 22.4286 36.5073 24.0986 36.5073 26.1417V35.3356Z" fill="#DC2217"/>
</svg>
