<svg width="48" height="48" viewBox="0 0 48 48" fill="none" xmlns="http://www.w3.org/2000/svg">
<g clip-path="url(#clip0)">
<rect x="0.951172" y="3" width="45.0732" height="42" fill="#FDFEFE"/>
<path d="M14.6662 44.9999C11.989 44.9999 8.91476 45 6.26025 45C4.49058 45 2.27866 44.9615 0.951291 44.9615C0.951388 44.1259 0.951264 41.5035 0.951264 39.7553C0.951264 29.7321 0.951264 19.1944 0.951264 9.16155C0.951264 6.31703 0.951084 3.43675 0.951228 3.04269C2.27849 3.04269 4.0985 3.04275 6.70267 3.0428C9.79962 3.04279 14.0158 3.04271 17.3207 3.04271C17.2913 2.94661 17.3795 3.04271 17.3207 3.04271L16.6548 3.43675C14.7131 4.55151 12.9381 5.8873 11.4475 7.54022C8.98597 10.2695 7.2796 13.4023 6.70101 17.0445C5.68111 23.4736 7.73071 28.9321 12.3693 33.4872C13.1931 34.304 13.3009 34.9383 12.6439 36.0338C11.8495 37.3504 11.4554 38.0368 10.1707 38.8537C9.88684 39.0341 9.49373 39.23 9.14629 39.3659C8.80047 39.5011 8.79346 39.7636 9.14629 39.878C9.49913 39.9925 10.1118 40.8256 10.1707 40.9024C11.1951 41.9268 11.1951 41.9268 12.2195 42.9512C12.7392 43.4221 12.7437 43.4855 13.2439 43.9756C13.4498 44.1582 13.8574 44.6013 14.2682 44.9999H14.6662Z" fill="#0180C7"/>
<path d="M14.2682 45C13.8605 44.5997 13.4482 44.1782 13.2438 43.9756C12.7264 43.4626 12.6584 43.39 12.2194 42.9512C11.1198 41.9478 11.7072 42.439 10.1706 40.9024C10.1122 40.8252 9.14624 39.878 9.14624 39.878C11.3292 40.5144 14.18 39.7737 16.5642 39.0501C17.3719 38.8089 18.1796 38.5677 18.9971 38.3651C19.5518 38.2204 20.1357 38.2493 20.6709 38.4423C26.8407 40.5456 32.9326 40.3526 38.9272 37.7476C41.3698 36.6767 43.5983 35.1716 45.4862 33.2902C45.5835 33.1937 46.0243 32.7073 46.0243 32.7073C46.0243 32.7073 46.0243 33.4401 46.0243 33.5849V39.7279C46.0243 42.6256 46.0243 44.1157 46.0243 44.9933C45.1462 44.9933 43.125 44.9933 40.756 44.9933H39.878C36.3746 45.0126 32.9715 44.9837 29.4682 44.9837L15.2926 44.9933C15.2926 44.9933 14.4628 45 14.2682 45Z" fill="#0172B1"/>
<path d="M16.7079 23.3722C18.2458 23.3722 19.692 23.3629 21.1281 23.3722C21.9327 23.3816 22.3706 23.6899 22.4521 24.2785C22.5437 25.0167 22.0752 25.5118 21.1994 25.5212C19.5494 25.5399 17.9097 25.5305 16.2598 25.5305C15.7811 25.5305 15.3126 25.5492 14.8339 25.5212C14.2432 25.4932 13.6627 25.381 13.3775 24.8204C13.0923 24.2599 13.296 23.7553 13.6831 23.2975C15.2515 21.4662 16.8301 19.6256 18.4088 17.7944C18.5004 17.6822 18.5921 17.5701 18.6837 17.4674C18.5819 17.3085 18.4393 17.3833 18.3171 17.3739C17.2171 17.3646 16.107 17.3739 15.0071 17.3646C14.7525 17.3646 14.4978 17.3365 14.2534 17.2898C13.6729 17.1684 13.3164 16.6358 13.4488 16.1126C13.5405 15.7575 13.846 15.4679 14.233 15.3838C14.4775 15.3278 14.7321 15.2997 14.9867 15.2997C16.7996 15.2904 18.6226 15.2904 20.4355 15.2997C20.7614 15.2904 21.0771 15.3278 21.3929 15.4025C22.0854 15.6174 22.3808 16.206 22.1058 16.8227C21.8614 17.3552 21.4743 17.8131 21.0873 18.2709C19.7531 19.8312 18.4189 21.3821 17.0847 22.9238C16.9727 23.0452 16.8709 23.1667 16.7079 23.3722Z" fill="#0180C7"/>
<path d="M28.2467 18.2278C28.4754 17.9396 28.7136 17.6701 29.1043 17.5958C29.857 17.447 30.562 17.921 30.5716 18.6646C30.6002 20.5234 30.5906 22.3822 30.5716 24.2411C30.5716 24.7244 30.2476 25.1519 29.7807 25.2913C29.3044 25.4679 28.7613 25.3285 28.4468 24.9288C28.2849 24.7337 28.2182 24.6965 27.9895 24.8731C27.1225 25.5608 26.1411 25.6817 25.0835 25.3471C23.3875 24.808 22.692 23.5161 22.5014 21.9454C22.3013 20.2446 22.8825 18.7947 24.4451 17.9025C25.7409 17.1496 27.0558 17.2147 28.2467 18.2278ZM24.8739 21.6201C24.8929 22.0291 25.0263 22.4194 25.274 22.7447C25.7885 23.4139 26.7699 23.5533 27.4655 23.0514C27.5798 22.9678 27.6846 22.8655 27.7799 22.7447C28.3134 22.0383 28.3134 20.8766 27.7799 20.1702C27.5131 19.8078 27.0939 19.594 26.6461 19.5847C25.598 19.5196 24.8643 20.3096 24.8739 21.6201ZM34.8496 21.6759C34.7734 19.2873 36.3836 17.5028 38.6703 17.4378C41.0999 17.3634 42.8721 18.9527 42.9484 21.2762C43.0246 23.6276 41.5478 25.2913 39.2706 25.5144C36.7838 25.756 34.8115 23.9994 34.8496 21.6759ZM37.2411 21.4528C37.2221 21.9175 37.365 22.3729 37.6508 22.754C38.1749 23.4232 39.1562 23.5533 39.8423 23.0328C39.9471 22.9585 40.0328 22.8655 40.1186 22.7726C40.6712 22.0662 40.6712 20.8766 40.1281 20.1702C39.8613 19.817 39.4421 19.594 38.9943 19.5847C37.9653 19.5289 37.2411 20.2911 37.2411 21.4528ZM34.0112 19.8263C34.0112 21.2669 34.0207 22.7075 34.0112 24.1481C34.0207 24.808 33.4871 25.3564 32.8106 25.3749C32.6963 25.3749 32.5724 25.3657 32.4581 25.3378C31.9817 25.2169 31.6196 24.7244 31.6196 24.1388V16.75C31.6196 16.3132 31.6101 15.8856 31.6196 15.4488C31.6292 14.7332 32.096 14.2684 32.8011 14.2684C33.5252 14.2592 34.0112 14.7239 34.0112 15.4674C34.0207 16.9173 34.0112 18.3765 34.0112 19.8263Z" fill="#0180C7"/>
</g>
<defs>
<clipPath id="clip0">
<rect x="3" y="3" width="42" height="42" rx="6" fill="white"/>
</clipPath>
</defs>
</svg>
